<?xml version="1.0" standalone="no"?>
<!DOCTYPE svg PUBLIC "-//W3C//DTD SVG 20010904//EN"
 "http://www.w3.org/TR/2001/REC-SVG-20010904/DTD/svg10.dtd">
<svg version="1.0" xmlns="http://www.w3.org/2000/svg"
 width="128.000000pt" height="128.000000pt" viewBox="0 0 128.000000 128.000000"
 preserveAspectRatio="xMidYMid meet">

<g transform="translate(0.000000,128.000000) scale(0.100000,-0.100000)"
fill="#000000" stroke="none">
<path d="M140 640 l0 -640 500 0 500 0 0 483 0 482 -158 158 -157 157 -343 0
-342 0 0 -640z m660 450 l0 -150 150 0 150 0 0 -450 0 -450 -460 0 -460 0 0
600 0 600 310 0 310 0 0 -150z m157 8 c57 -57 103 -106 103 -110 0 -5 -49 -8
-110 -8 l-110 0 0 110 c0 61 3 110 7 110 4 0 54 -46 110 -102z"/>
<path d="M442 854 c-40 -34 -44 -35 -61 -20 -20 19 -37 21 -47 5 -7 -12 43
-69 60 -69 18 0 126 92 126 107 0 23 -34 13 -78 -23z"/>
<path d="M550 810 c0 -20 4 -20 188 -18 158 3 187 5 187 18 0 13 -29 15 -187
18 -184 2 -188 2 -188 -18z"/>
<path d="M443 621 l-50 -40 -21 22 c-17 17 -24 19 -34 9 -10 -10 -5 -20 23
-48 l36 -36 62 52 c58 48 70 69 45 77 -6 2 -33 -14 -61 -36z"/>
<path d="M557 593 c-4 -3 -7 -12 -7 -20 0 -10 37 -13 183 -13 101 0 187 3 190
7 4 3 2 12 -4 20 -9 10 -52 13 -184 13 -94 0 -175 -3 -178 -7z"/>
<path d="M450 389 c-48 -38 -53 -39 -69 -25 -20 19 -37 20 -47 5 -6 -11 43
-69 59 -69 16 0 127 93 127 106 0 27 -20 23 -70 -17z"/>
<path d="M550 340 c0 -20 4 -20 188 -18 158 3 187 5 187 18 0 13 -29 15 -187
18 -184 2 -188 2 -188 -18z"/>
</g>
</svg>
